<?xml version="1.0" encoding="UTF-8"?>
<svg version="1.1" xmlns="http://www.w3.org/2000/svg" width="512" height="512">
<path d="M0 0 C2.76904152 1.94581296 3.79712 3.51824962 5.10546875 6.625 C4.9562786 11.39908468 2.72975148 12.9591743 -0.61328125 16.1796875 C-1.40089844 16.90414062 -2.18851562 17.62859375 -3 18.375 C-4.52322978 19.81778664 -6.04408444 21.26308514 -7.5625 22.7109375 C-8.31853516 23.42797852 -9.07457031 24.14501953 -9.85351562 24.88378906 C-11.81225305 26.81490098 -13.61992842 28.79313335 -15.40625 30.8828125 C-20.65155142 37.01794184 -26.51803926 42.56021692 -32.26171875 48.22265625 C-36.75090507 52.67297515 -41.07462624 57.16277196 -45.18554688 61.96289062 C-49.73797641 67.07396059 -54.74324674 71.77692963 -59.6171875 76.578125 C-63.99188307 80.91292973 -68.19185154 85.29819646 -72.19970703 89.97265625 C-75.76541438 93.98806632 -79.62176369 97.72423514 -83.4375 101.5 C-84.26443359 102.32242188 -85.09136719 103.14484375 -85.94335938 103.9921875 C-87.95994959 105.99712113 -89.97885236 107.99966253 -92 110 C-90.02193359 110.05607422 -90.02193359 110.05607422 -88.00390625 110.11328125 C-72.94181023 110.62789934 -57.79848668 111.32112561 -44 118 C-44 118.33 -44 118.66 -44 119 C-44.65288498 119.02061493 -45.30576996 119.04122986 -45.97843933 119.06246948 C-52.7758167 119.27889023 -59.57267936 119.50806117 -66.36938477 119.74462891 C-68.90573351 119.83123356 -71.44219532 119.91459049 -73.97875977 119.99462891 C-77.62550932 120.11026277 -81.27169224 120.23758412 -84.91796875 120.3671875 C-86.05147263 120.40061249 -87.1849765 120.43403748 -88.35282898 120.46847534 C-89.94391228 120.528311 -89.94391228 120.528311 -91.56713867 120.58935547 C-92.96279305 120.63598831 -92.96279305 120.63598831 -94.38664246 120.68356323 C-100.26247229 121.39503442 -103.31798155 123.9517346 -107.375 128.125 C-108.26960938 129.03507813 -109.16421875 129.94515625 -110.0859375 130.8828125 C-112.17521963 133.07867496 -114.16457223 135.3411922 -116.13745117 137.6418457 C-120.14614406 142.2327351 -124.40088432 146.54503799 -128.71484375 150.84765625 C-129.52941544 151.66318466 -130.34398712 152.47871307 -131.1832428 153.31895447 C-132.89559193 155.03198008 -134.60918842 156.74375965 -136.32397461 158.4543457 C-138.93002015 161.05503552 -141.53068522 163.66101956 -144.13085938 166.26757812 C-145.80436699 167.94042486 -147.47818482 169.61296134 -149.15234375 171.28515625 C-149.9202977 172.05513443 -150.68825165 172.82511261 -151.47947693 173.61842346 C-155.63973065 177.76089796 -159.88346641 181.74015 -164.34132385 185.56150818 C-166.3271797 187.28374757 -168.17459474 189.1094017 -170 191 C-173.1498003 194.19261312 -176.41219489 197.17161279 -179.8125 200.09375 C-182.35511399 202.30945648 -184.83110198 204.59098592 -187.3125 206.875 C-191.77522832 210.94540056 -196.36258 214.80176909 -201.0625 218.59375 C-204.36355418 221.29780502 -207.58718574 224.08162759 -210.8125 226.875 C-217.70352929 232.81328342 -224.77421302 238.47522513 -232 244 C-232.73992187 244.56589844 -233.47984375 245.13179687 -234.2421875 245.71484375 C-265.46638383 269.51689505 -297.96122611 290.26840815 -333 308 C-333.81436523 308.41523926 -334.62873047 308.83047852 -335.46777344 309.25830078 C-358.81751627 321.07953498 -388.10166397 334.71282921 -414.8046875 328.05078125 C-417.72336098 326.89714098 -420.32349574 325.63212507 -423 324 C-423.61875 323.62746094 -424.2375 323.25492187 -424.875 322.87109375 C-429.37331052 319.64355595 -432.3433056 315.2087595 -434 310 C-436.51696164 290.06728765 -428.01382942 272.90300068 -416.1875 257.375 C-403.12714561 240.74300803 -387.73391661 224.91991852 -371 212 C-369.87518302 211.08891854 -368.75295498 210.174635 -367.6328125 209.2578125 C-298.99652733 153.2325222 -213.75250796 120.81743059 -125.65893555 112.57861328 C-124.94119461 112.50592224 -124.22345367 112.4332312 -123.48396301 112.3583374 C-121.48798708 112.16041601 -119.48986208 111.98452336 -117.49169922 111.81005859 C-111.19107325 110.34834156 -107.88460028 105.87711237 -104 101 C-99.39892663 95.60809488 -94.61877304 90.39987265 -89.75 85.25 C-84.34763096 79.51185663 -78.98740086 73.74064591 -73.671875 67.921875 C-69.30134281 63.14240413 -64.9025899 58.38903803 -60.50732422 53.63232422 C-59.02589866 52.02804639 -57.54591008 50.42245634 -56.06640625 48.81640625 C-53.04820714 45.54062336 -50.02520069 42.26931706 -47 39 C-46.42958984 38.38302246 -45.85917969 37.76604492 -45.27148438 37.13037109 C-37.99210284 29.26426345 -30.64068157 21.51766523 -23 14 C-22.17886719 13.17242187 -21.35773438 12.34484375 -20.51171875 11.4921875 C-18.18228714 9.18086966 -15.81348074 6.94547063 -13.375 4.75 C-12.61960937 4.06421875 -11.86421875 3.3784375 -11.0859375 2.671875 C-7.56898406 -0.1469566 -4.39016791 -0.44797632 0 0 Z M-267.22900391 161.77294922 C-269.62893083 162.83568338 -272.03708464 163.87558775 -274.44921875 164.91015625 C-288.29316379 170.99214031 -301.12280228 179.127546 -314 187 C-314.92232422 187.56332031 -315.84464844 188.12664062 -316.79492188 188.70703125 C-356.13191659 212.85449335 -409.28854789 248.26676144 -423.37890625 295.109375 C-424.62716842 300.91889706 -425.06259596 306.4497697 -422.75 312 C-419.75528381 315.42253278 -418.06390393 316.86107892 -413.41015625 317.46875 C-374.74219308 318.41638359 -337.69406497 295.82665386 -306 276 C-305.10974121 275.44844238 -304.21948242 274.89688477 -303.30224609 274.32861328 C-291.27818005 266.87011562 -279.5998028 259.0776817 -268.23291016 250.65185547 C-265.92717422 248.94612517 -263.61127629 247.25500297 -261.29296875 245.56640625 C-240.04551486 230.05851869 -219.59555641 213.6492707 -199.69287109 196.45458984 C-197.9973171 194.99769473 -196.29148974 193.55382521 -194.58203125 192.11328125 C-186.14037576 184.9823007 -178.05432549 177.52603726 -170.03662109 169.92333984 C-168.01928012 168.01820772 -165.99053169 166.12614507 -163.95703125 164.23828125 C-142.58679151 144.39370649 -142.58679151 144.39370649 -124 122 C-170.629097 120.84505033 -225.46812408 143.26428977 -267.22900391 161.77294922 Z " fill="#007AB7" transform="translate(471,37)"/>
<path d="M0 0 C1.14243164 0.00161133 2.28486328 0.00322266 3.46191406 0.00488281 C15.64496091 0.18225518 25.88799449 2.13799449 34.8125 11.0625 C39.15905556 16.6148742 40.83166494 23.4261281 40.125 30.375 C36.12866444 55.84184426 16.81467851 77.28205751 -0.1875 95.4375 C-0.83267578 96.12739014 -1.47785156 96.81728027 -2.14257812 97.52807617 C-6.49112699 102.10195287 -11.08711484 106.26875763 -15.875 110.375 C-17.3349562 111.70655615 -18.79363397 113.03951811 -20.25 114.375 C-33.61421496 126.19541772 -33.61421496 126.19541772 -41.875 126.375 C-44.88185602 121.20320764 -44.88185602 121.20320764 -44.85546875 118.015625 C-43.44317133 114.21198732 -40.70989858 112.26458841 -37.625 109.8125 C-36.33546406 108.74824146 -35.04774355 107.68177991 -33.76171875 106.61328125 C-33.10864746 106.07396973 -32.45557617 105.5346582 -31.78271484 104.97900391 C-28.9199089 102.57196077 -26.17248083 100.05040373 -23.4375 97.5 C-22.91414062 97.01217041 -22.39078125 96.52434082 -21.8515625 96.02172852 C-20.76575498 95.00805621 -19.68064364 93.99363772 -18.59619141 92.97851562 C-16.75400651 91.26227868 -14.89942528 89.5601587 -13.04296875 87.859375 C-5.94085383 81.33317897 0.90994707 74.77026333 7.125 67.375 C7.5900293 66.8382666 8.05505859 66.3015332 8.53417969 65.74853516 C17.07137997 55.86523168 27.28285213 43.90641025 27.875 30.25 C27.47121868 25.685218 26.34188748 22.75685607 23.125 19.375 C12.61980737 11.81906098 -2.57081873 13.15512853 -14.8125 15.0234375 C-69.06808666 24.97911294 -121.60516199 58.62323484 -160.875 96.375 C-161.49906738 96.97183594 -162.12313477 97.56867188 -162.76611328 98.18359375 C-171.94669823 107.01116467 -180.44395075 116.01874887 -187.875 126.375 C-188.30506348 126.97135254 -188.73512695 127.56770508 -189.17822266 128.18212891 C-204.14035956 149.16704175 -217.4694494 175.95117143 -213.40625 202.4296875 C-211.10157463 213.21227582 -206.10705919 222.11895989 -196.875 228.375 C-185.81507991 234.62922291 -174.0371657 236.95176287 -161.4375 236.875 C-160.30932861 236.86855469 -159.18115723 236.86210937 -158.01879883 236.85546875 C-133.8418868 236.33747726 -110.93032607 226.66307988 -89.875 215.375 C-88.8226416 214.82271729 -88.8226416 214.82271729 -87.74902344 214.25927734 C-63.95093912 201.74595442 -40.79348573 185.5942847 -21.875 166.375 C-19.9375 167.1875 -19.9375 167.1875 -17.875 168.375 C-17.545 169.365 -17.215 170.355 -16.875 171.375 C-27.91362924 183.50966335 -38.91623683 195.25208805 -51.875 205.375 C-53.33292969 206.55835938 -53.33292969 206.55835938 -54.8203125 207.765625 C-63.672701 214.82091207 -73.09184295 220.69835332 -82.875 226.375 C-83.51163574 226.74898926 -84.14827148 227.12297852 -84.80419922 227.50830078 C-113.64410912 244.30380864 -148.92208573 253.59718528 -181.875 245.375 C-198.71153448 240.31291419 -214.03959747 230.78460809 -222.6640625 215.03125 C-231.74876345 195.10351888 -229.84055764 172.63738467 -222.63867188 152.38330078 C-220.41427312 146.53358716 -217.7148984 140.94654954 -214.875 135.375 C-214.40320313 134.42238281 -213.93140625 133.46976563 -213.4453125 132.48828125 C-200.83416533 108.08535524 -179.56105204 85.8669638 -157.875 69.375 C-156.56817779 68.35262589 -155.26226178 67.32909288 -153.95703125 66.3046875 C-112.08475622 33.63253146 -54.61435919 -0.08029162 0 0 Z " fill="#007AB7" transform="translate(435.875,241.625)"/>
<path d="M0 0 C1.2211853 -0.00376648 2.44237061 -0.00753296 3.70056152 -0.01141357 C38.52173662 -0.06585642 38.52173662 -0.06585642 50.125 5.3125 C50.125 6.9625 50.125 8.6125 50.125 10.3125 C47.61629142 11.56685429 46.13059646 11.34104163 43.33203125 11.19140625 C42.32551514 11.14282471 41.31899902 11.09424316 40.28198242 11.04418945 C39.17830322 10.98835693 38.07462402 10.93252441 36.9375 10.875 C-19.36481566 8.43254537 -77.49756997 11.87866045 -129.1875 36.3125 C-130.69872437 37.0233374 -130.69872437 37.0233374 -132.24047852 37.74853516 C-139.35676608 41.23713192 -145.6124285 45.46973154 -151.875 50.3125 C-152.65141846 50.91288086 -153.42783691 51.51326172 -154.2277832 52.13183594 C-160.13353168 56.81994224 -165.04145568 62.59335676 -166.3828125 70.1875 C-166.62124013 76.03692441 -165.91585902 79.8462874 -161.875 84.3125 C-159.92556443 86.05748257 -157.92441287 87.68228522 -155.875 89.3125 C-155.875 89.6425 -155.875 89.9725 -155.875 90.3125 C-162.21517746 90.86381978 -167.30032195 89.39274584 -172.875 86.3125 C-177.12477367 82.61618523 -179.68099196 78.35635216 -180.2109375 72.7734375 C-180.48473165 60.62233427 -178.31125694 52.22291946 -170.25 42.75390625 C-143.40142817 15.15463422 -97.21315108 8.82418338 -60.95996094 3.6138916 C-59.05295015 3.33822359 -57.14747608 3.05197825 -55.2421875 2.76464844 C-36.87785194 0.08562849 -18.52472566 0.03195051 0 0 Z " fill="#007AB7" transform="translate(408.875,22.6875)"/>
</svg>
